<svg xmlns="http://www.w3.org/2000/svg" xmlns:xlink="http://www.w3.org/1999/xlink" width="804.993" height="503.998" viewBox="0 0 804.993 503.998">
  <defs>
    <clipPath id="clip-path">
      <rect id="Rectangle_27" data-name="Rectangle 27" width="138" height="203" transform="translate(1563 4806) rotate(180)" fill="#fff"/>
    </clipPath>
  </defs>
  <g id="Group_36" data-name="Group 36" transform="translate(24.993 1491.998)">
    <rect id="Rectangle_25" data-name="Rectangle 25" width="172" height="69.899" rx="15.708" transform="translate(64 -1083)" fill="#164aa5"/>
    <path id="Path_256" data-name="Path 256" d="M893.8,4739.6v4.94h6.644v3.14H893.8v5.23h7.493v3.23H889.84v-19.77h11.451v3.23Zm19.742,16.54-3.224-4.87-2.855,4.87H903.22l5.117-7.86-5.174-7.81h4.467l3.2,4.84,2.884-4.84h4.241l-5.146,7.81,5.2,7.86Zm10.575-13.4a5.982,5.982,0,0,1,2.092-1.79,6.363,6.363,0,0,1,3.082-.73,6.784,6.784,0,0,1,6.192,3.82,8.825,8.825,0,0,1,.962,4.21,9.215,9.215,0,0,1-.962,4.27,6.967,6.967,0,0,1-2.573,2.85,6.625,6.625,0,0,1-3.619,1.02,6.3,6.3,0,0,1-3.053-.71,6.506,6.506,0,0,1-2.121-1.78v9.7h-3.958v-23.13h3.958Zm8.284,5.51a4.757,4.757,0,0,0-.593-2.43,3.882,3.882,0,0,0-1.527-1.59,4.086,4.086,0,0,0-2.036-.53,4.02,4.02,0,0,0-2.036.56,4.129,4.129,0,0,0-1.526,1.59,5.056,5.056,0,0,0-.566,2.46,5.112,5.112,0,0,0,.566,2.46,4.407,4.407,0,0,0,1.526,1.61,4.192,4.192,0,0,0,2.036.53,3.825,3.825,0,0,0,2.036-.56,4.128,4.128,0,0,0,1.527-1.61A4.988,4.988,0,0,0,932.4,4748.25Zm13.875,8.14a8.337,8.337,0,0,1-4.071-.99,7.458,7.458,0,0,1-2.856-2.85,8.629,8.629,0,0,1-1.018-4.24,8.443,8.443,0,0,1,1.047-4.25,7.379,7.379,0,0,1,2.912-2.82,8.748,8.748,0,0,1,8.2,0,7.188,7.188,0,0,1,2.884,2.82,8.276,8.276,0,0,1,1.075,4.25,8.1,8.1,0,0,1-1.1,4.24,7.541,7.541,0,0,1-2.941,2.85A8.561,8.561,0,0,1,946.274,4756.39Zm0-3.45a4.121,4.121,0,0,0,2.008-.51,3.8,3.8,0,0,0,1.527-1.58,5.3,5.3,0,0,0,.565-2.54,4.668,4.668,0,0,0-1.187-3.43,3.976,3.976,0,0,0-5.712,0,4.807,4.807,0,0,0-1.131,3.43,4.946,4.946,0,0,0,1.1,3.44A3.715,3.715,0,0,0,946.274,4752.94Zm15.034-10.04a5.743,5.743,0,0,1,1.979-1.95,5.628,5.628,0,0,1,2.827-.7v4.15h-1.046a3.292,3.292,0,0,0-3.76,3.93v7.81h-3.959v-15.67h3.959Zm12.081.82v7.58a1.575,1.575,0,0,0,.367,1.16,1.972,1.972,0,0,0,1.3.34H976.9v3.34h-2.488q-5.005,0-5.005-4.87v-7.55h-1.866v-3.25H969.4v-3.87h3.987v3.87H976.9v3.25Z" transform="translate(-783 -5794)" fill="#fff"/>
    <path id="Path_265" data-name="Path 265" d="M979.878,4354.19l8.348-37.1,2.723-12.09a3.856,3.856,0,0,1,4.606-2.9l4.112.93,32.983,7.45a3.919,3.919,0,0,1,1.37.61,3.824,3.824,0,0,1,1.03,1.09,3.921,3.921,0,0,1,.54,1.4,3.981,3.981,0,0,1-.04,1.5c1.77,16.51-1.73,31.74-9.31,45.99-.56,1.06-1.16,2.13-1.77,3.2a3.929,3.929,0,0,1-1.09,1.93,3.818,3.818,0,0,1-3.51.97l-4.32-.97-2.67-.61-30.1-6.8a3.851,3.851,0,0,1-2.9-4.6Z" transform="translate(-783 -5794)" fill="#e6e6e6"/>
    <path id="Path_266" data-name="Path 266" d="M983.329,4352.12l7.956-35.29,1.905-8.47a3.6,3.6,0,0,1,4.3-2.73l2.537.57,29.34,6.64a3.639,3.639,0,0,1,2.26,1.59,3.6,3.6,0,0,1,.47,2.72c-.26,12.84-1.61,24.5-7.13,31.62a16.087,16.087,0,0,1-11,11.82c-.07.02-.13.04-.2.06-.04.01-.1.04-.14.05a15.851,15.851,0,0,1-7.83.2l-19.748-4.47a3.608,3.608,0,0,1-2.723-4.31Z" transform="translate(-783 -5794)" fill="#fff"/>
    <path id="Path_267" data-name="Path 267" d="M1012.57,4324.6a4.59,4.59,0,0,0-5.38-1.17,4.712,4.712,0,0,0-2.4,5.14c.35,2.31,1.55,4.42,1.66,6.79a5.828,5.828,0,0,1-2.51,5.37c-1.31.8-2.67-1.18-1.35-1.99,2.18-1.32,1.45-4.23.82-6.21-.79-2.48-1.61-5.01-.64-7.56a6.985,6.985,0,0,1,2.02-2.75,6.916,6.916,0,0,1,6.47-1.24,6.956,6.956,0,0,1,2.88,1.81C1015.18,4323.91,1013.62,4325.74,1012.57,4324.6Z" transform="translate(-783 -5794)" fill="#164aa5"/>
    <path id="Path_268" data-name="Path 268" d="M1002,4347.65a2.4,2.4,0,1,1,2.4-2.4A2.4,2.4,0,0,1,1002,4347.65Z" transform="translate(-783 -5794)" fill="#164aa5"/>
    <path id="Path_269" data-name="Path 269" d="M851.044,4766.3l37.972-.23,12.371-.07c2.126-.01,3.869.8,3.892,1.81l.05,2,.417,16.06c.031,1-1.67,1.83-3.8,1.85a161.188,161.188,0,0,1-46.828.76c-1.165-.15-2.338-.3-3.517-.47a7.282,7.282,0,0,1-2.127-.29c-1.05-.32-1.744-.88-1.762-1.51l-.056-2.11-.031-1.3-.38-14.65C847.226,4767.14,848.929,4766.31,851.044,4766.3Z" transform="translate(-783 -5794)" fill="#e6e6e6"/>
    <path id="Path_270" data-name="Path 270" d="M853.851,4767.67l36.126-.21,8.672-.06c1.987-.01,3.622.75,3.647,1.69l.032,1.24.37,14.29c.025.94-1.566,1.72-3.554,1.73-12.539,1.29-24.176,1.96-32.369.19-5.964.03-11.224-1.5-14.031-3.79-.038-.03-.073-.05-.11-.08-.021-.02-.056-.04-.077-.06a5.007,5.007,0,0,1-2.015-3.6l-.244-9.61C850.273,4768.45,851.864,4767.68,853.851,4767.67Z" transform="translate(-783 -5794)" fill="#fff"/>
    <path id="Path_271" data-name="Path 271" d="M887.368,4778.15c1.107-.79,1.223-1.86-.108-2.62a8.785,8.785,0,0,0-5.547-.54c-2.167.41-3.934,1.2-6.211,1.52a11.133,11.133,0,0,1-5.8-.57c-1.083-.52.528-1.37,1.617-.84,1.791.86,4.448.2,6.229-.31a20.34,20.34,0,0,1,7.194-1.13c4.925.31,7.494,3.06,4.75,5.02-.848.6-2.983.08-2.124-.53Z" transform="translate(-783 -5794)" fill="#e6e6e6"/>
    <path id="Path_272" data-name="Path 272" d="M864.861,4776.68c-1.324,0-2.4-.51-2.4-1.14s1.074-1.14,2.4-1.14,2.4.51,2.4,1.14S866.186,4776.68,864.861,4776.68Z" transform="translate(-783 -5794)" fill="#e6e6e6"/>
    <path id="Path_273" data-name="Path 273" d="M921.819,4491.74c3.3-13.88,2.749-27.55-2.9-40.94a3.136,3.136,0,0,0-3.342-2.9l-30.872,2.19a3.146,3.146,0,0,0-2.9,3.35l2.9,40.94a3.135,3.135,0,0,0,3.342,2.9l30.872-2.19a3.146,3.146,0,0,0,2.9-3.35Z" transform="translate(-783 -5794)" fill="#f2f2f2"/>
    <path id="Path_274" data-name="Path 274" d="M918.575,4479.54c2.64-6.84.952-16.24-1.865-26.32a2.934,2.934,0,0,0-1-2,2.9,2.9,0,0,0-2.126-.71l-26.531,1.88a2.945,2.945,0,0,0-2.716,3.14l2.581,36.42a2.936,2.936,0,0,0,1,2.01,2.9,2.9,0,0,0,2.126.71l16.436-1.16a13.086,13.086,0,0,0,12.1-13.97Z" transform="translate(-783 -5794)" fill="#fff"/>
    <path id="Path_275" data-name="Path 275" d="M901.254,4472.6a5.441,5.441,0,0,1-2.8-6.35c1.245-4.58,6.715-4.6,10.492-4.05,1.219.18.7,2.03-.51,1.85-2.546-.37-6.542-.67-7.909,2.11a3.681,3.681,0,0,0-.32,2.11,3.605,3.605,0,0,0,.9,1.92,3.5,3.5,0,0,0,2.162,1.03,5.856,5.856,0,0,1,2.514-.47c.89.05,1.386,1.34.485,1.79a5.726,5.726,0,0,1-2.567.61,4.218,4.218,0,0,0-1.773,1.63,4.165,4.165,0,0,0-.574,2.34,4.235,4.235,0,0,0,.574,1.59,4.322,4.322,0,0,0,1.138,1.25,4.313,4.313,0,0,0,3.212.78c1.207-.25,1.723,1.61.51,1.85a6.253,6.253,0,0,1-6.487-2.89,6.292,6.292,0,0,1-.846-2.36,5.87,5.87,0,0,1,.356-2.58A5.789,5.789,0,0,1,901.254,4472.6Z" transform="translate(-783 -5794)" fill="#f2f2f2"/>
    <path id="Path_276" data-name="Path 276" d="M861.806,4754.26h10.862l5.167-41.95H861.8Z" transform="translate(-783 -5794)" fill="#ffb6b6"/>
    <path id="Path_277" data-name="Path 277" d="M861.423,4765.61h33.4v-.42a13,13,0,0,0-13-13.02h0l-6.1-4.64-11.384,4.64h-2.915Z" transform="translate(-783 -5794)" fill="#2f2e41"/>
    <path id="Path_278" data-name="Path 278" d="M811.872,4777.34h10.862l5.166-41.95H811.87Z" transform="translate(-783 -5794)" fill="#ffb6b6"/>
    <path id="Path_279" data-name="Path 279" d="M811.491,4788.69h33.4v-.42a13,13,0,0,0-13-13.02h0l-6.1-4.64-11.383,4.64H811.49Z" transform="translate(-783 -5794)" fill="#2f2e41"/>
    <path id="Path_280" data-name="Path 280" d="M945.508,4441.81a7.683,7.683,0,0,1-5.949,2.58,7.68,7.68,0,0,1-5.813-2.87l-37.035,10.56-5.435-9.54,44.079-12.22a7.678,7.678,0,0,1,5.32-1.32,7.727,7.727,0,0,1,4.833,12.81Z" transform="translate(-783 -5794)" fill="#ffb6b6"/>
    <path id="Path_281" data-name="Path 281" d="M849.2,4530.12l38.969,89.23,4.481,14.1-13.548,99-21.868-1.07.049-12.7s5.2-2.82.017-4.36-4.969-5.43.043-11.17.235-60.72.235-60.72-20.638-19.79-18.39-24.96-1.925-5.18-1.925-5.18-4.449-.79-4.619-2.96-3.468-6.52-3.468-6.52l1.156,152.47H811.463s-8.627-14.36-6.931-17.44,4.066-3.4,0-7.09-10.035-.67-7.371-7.63,1.98-82.09,1.98-82.09-10.5-43.59-4.012-46.55,3.261-2.54-.568-6.6,2.665-3.68-.582-6.75-3.379-39.21-3.379-39.21Z" transform="translate(-783 -5794)" fill="#2f2e41"/>
    <path id="Path_282" data-name="Path 282" d="M787.661,4555.24c27.317-.07,50.753,6.08,78.069,6.02-1.779-12.34-8-31.67-9.778-44.01-2.5-17.35-.561-27.71-3.057-45.06-.25-1.7-.493-3.39-.736-5.09-.986-6.86,1.376-13.72-2.862-20.97-1.8-3.09-4.807-6.24-9.782-9.5-10.332,1.05-10.153-3.61-20.485-2.56l-3.419,6.82a7.839,7.839,0,0,1-4.129,5.55c-4.372,2.65-11.107,3.57-15.153,7.16-5.083,4.5-4.743,11.7-3.233,18.72.538,2.5,1.223,4.98,1.87,7.3,5.2,18.76-1.448,33.06-6.872,50.45-.514,1.65,4.357,8.03,3.841,9.62-.875,2.69-4.009,6.04-3.51,7.86C789.043,4549.81,789.659,4551.92,787.661,4555.24Z" transform="translate(-783 -5794)" fill="#164aa5"/>
    <path id="Path_283" data-name="Path 283" d="M793.1,4472.32l59.8-.13,1.921-.01,70.915-26.09-9.075.31-4.212-9.73-2.029-4.67-41.8,13.99-19.321.14-36.426.27c-.467.01-.928.02-1.389.04-4.372,2.65-11.107,3.57-15.153,7.16C791.247,4458.1,791.587,4465.3,793.1,4472.32Z" transform="translate(-783 -5794)" fill="#164aa5"/>
    <path id="Path_284" data-name="Path 284" d="M833.951,4432.21a19.465,19.465,0,1,1,19.433-19.46A19.451,19.451,0,0,1,833.951,4432.21Z" transform="translate(-783 -5794)" fill="#ffb6b6"/>
    <path id="Path_285" data-name="Path 285" d="M836.712,4429.47l-1.583,5.07c-3.509-1.73-13.468-4.14-16.391-6.75s-5.183-6.2-5.321-10.12c-.072-2.02.418-4.07.082-6.06-.379-2.26-1.77-4.21-2.406-6.41a10.232,10.232,0,0,1,5.506-11.8c3.222-1.42,6.905-1.02,10.407-1.36s7.408-1.93,8.394-5.31c.368-1.27.326-2.76,1.454-3.59a2.75,2.75,0,0,1,3.655.53q.078.09.15.18a7.274,7.274,0,0,0,11.475.24q.287-.36.551-.75a6.376,6.376,0,0,1,.252,9.06,4.927,4.927,0,0,0,4.779-3.77,15.777,15.777,0,0,1,3.148,6.04c.432,2.24-.369,4.9-2.428,5.9a7.787,7.787,0,0,1-3.308.54c5.313,6.3,2.125,6.11-8.635.17-5.337.1-3.229,5.07-3.3,10.41-2.512-.24-5.1-.48-7.475.58a5.743,5.743,0,0,0-2.666,2.3c-1.57,2.7-.012,5.5,1.368,7.96,1.18,2.1,2.3,4.63,1.319,6.83" transform="translate(-783 -5794)" fill="#2f2e41"/>
    <path id="Path_286" data-name="Path 286" d="M872.082,4592.62a7.652,7.652,0,0,1-2.492-2.2,7.739,7.739,0,0,1,.151-9.35l-18.538-33.8,8.074-7.43L881,4580.14a7.74,7.74,0,0,1,1.072,10.21,7.727,7.727,0,0,1-9.993,2.27Z" transform="translate(-783 -5794)" fill="#ffb6b6"/>
    <path id="Path_287" data-name="Path 287" d="M826.866,4434.56l4.321,77.52,20.819,48.72,13.55,18-1.541-8.16,9.34-4.68.877-.43L861.8,4533.99l-3.751-9.51-1.748-28.64-1.651-27.08a33.8,33.8,0,0,0-12.381-24.13L831.9,4436.2Z" transform="translate(-783 -5794)" fill="#164aa5"/>
    <path id="Path_288" data-name="Path 288" d="M972.393,4434.68c3.3-13.88,2.749-27.54-2.9-40.94a3.136,3.136,0,0,0-3.342-2.9l-30.872,2.19a3.147,3.147,0,0,0-2.9,3.35l2.9,40.94a3.134,3.134,0,0,0,3.342,2.9l30.871-2.19a3.145,3.145,0,0,0,2.9-3.35Z" transform="translate(-783 -5794)" fill="#f2f2f2"/>
    <path id="Path_289" data-name="Path 289" d="M969.148,4422.49c2.64-6.84.952-16.25-1.865-26.32a2.939,2.939,0,0,0-1-2.01,2.9,2.9,0,0,0-2.127-.71l-26.531,1.88a2.945,2.945,0,0,0-2.716,3.14l2.582,36.43a2.95,2.95,0,0,0,3.13,2.72l16.435-1.17a13.085,13.085,0,0,0,12.1-13.96Z" transform="translate(-783 -5794)" fill="#fff"/>
    <path id="Path_290" data-name="Path 290" d="M952.834,4404.15a4.783,4.783,0,0,1,6.052,4c.35,3.17-3.05,5.67-5.993,4.81a.965.965,0,0,1,.51-1.86c2.158.63,4.459-1.7,3.219-3.78a2.806,2.806,0,0,0-2.9-1.42,3.177,3.177,0,0,0-2.141,1.94c-1.058,2.39.2,4.82,1.867,6.55.951.99,2.067,1.76,3.092,2.66a4.52,4.52,0,0,1,1.215,1.41,4.434,4.434,0,0,1,.543,1.77,3.824,3.824,0,0,1-2.185,3.32c-1.637.85-3.5.58-5.241.3-1.217-.2-.7-2.05.51-1.86,1.524.25,3.805.62,4.77-.97.827-1.36-.877-2.56-1.8-3.28-2.332-1.83-4.691-4.18-5.041-7.27C949.021,4407.93,950.309,4405.03,952.834,4404.15Z" transform="translate(-783 -5794)" fill="#164aa5"/>
    <path id="Path_291" data-name="Path 291" d="M792.735,4778.89a1.482,1.482,0,0,1-.843-.23,1.464,1.464,0,0,1-.564-.66,1.486,1.486,0,0,1-.079-.88,1.427,1.427,0,0,1,.433-.75l.1-.4c-.013-.03-.026-.06-.04-.1a3.92,3.92,0,0,0-3.607-2.38,3.865,3.865,0,0,0-2.158.66,3.925,3.925,0,0,0-1.431,1.75c-1.177,2.84-2.676,5.68-3.045,8.69a11.579,11.579,0,0,0,.2,3.97,46.4,46.4,0,0,1-4.209-19.25,44.875,44.875,0,0,1,.277-4.99c.153-1.35.365-2.7.637-4.04a46.914,46.914,0,0,1,9.282-19.87,12.466,12.466,0,0,0,5.181-5.38,9.546,9.546,0,0,0,.864-2.6c-.252.03-.951-3.82-.76-4.05-.352-.54-.981-.8-1.365-1.32-1.909-2.6-4.54-2.14-5.913,1.38-2.933,1.48-2.962,3.94-1.162,6.31,1.146,1.5,1.3,3.54,2.308,5.15-.1.13-.211.26-.315.39a47.32,47.32,0,0,0-4.917,7.8,19.648,19.648,0,0,0-1.169-9.11c-1.119-2.7-3.217-4.98-5.064-7.32a4.031,4.031,0,0,0-4.239-1.4,3.965,3.965,0,0,0-1.973,1.25,4.011,4.011,0,0,0-.948,2.13c0,.04-.007.07-.011.1.275.16.543.32.806.5a1.948,1.948,0,0,1,.734.9,1.974,1.974,0,0,1-1.529,2.69l-.04.01a19.569,19.569,0,0,0,.517,2.93c-2.37,9.18,2.746,12.52,10.052,12.67.161.09.318.17.479.25a48.089,48.089,0,0,0-2.588,12.2,45.8,45.8,0,0,0,.033,7.37l-.012-.09a12.109,12.109,0,0,0-4.114-6.97c-3.167-2.6-7.64-3.56-11.055-5.65a2.2,2.2,0,0,0-1.217-.36,2.28,2.28,0,0,0-1.218.35,2.278,2.278,0,0,0-1.029,2.21l.014.09a13.526,13.526,0,0,1,1.484.72c.274.15.543.32.806.49a1.984,1.984,0,0,1,.829,2.07,1.951,1.951,0,0,1-.577,1.01,1.974,1.974,0,0,1-1.047.51l-.04.01c-.029,0-.054.01-.083.01a19.571,19.571,0,0,0,3.61,5.66c1.482,8.01,7.846,8.77,14.654,6.44h0a48.061,48.061,0,0,0,3.229,9.44h11.536c.042-.13.079-.26.116-.39a12.674,12.674,0,0,1-3.192-.19c.856-1.05,1.712-2.11,2.568-3.16.019-.02.037-.04.053-.06.435-.54.873-1.08,1.307-1.61h0a19.3,19.3,0,0,0-.562-4.9Z" transform="translate(-783 -5794)" fill="#f2f2f2"/>
    <path id="Path_292" data-name="Path 292" d="M921.763,4789.24a.75.75,0,0,1-.058.29.777.777,0,0,1-.165.25.791.791,0,0,1-.247.16.737.737,0,0,1-.292.06H758.851a.769.769,0,0,1-.538-.22.78.78,0,0,1-.223-.54.744.744,0,0,1,.223-.54.737.737,0,0,1,.538-.23H921a.745.745,0,0,1,.292.06.821.821,0,0,1,.247.17.74.74,0,0,1,.165.24A.843.843,0,0,1,921.763,4789.24Z" transform="translate(-783 -5794)" fill="#ccc"/>
    <path id="Path_293" data-name="Path 293" d="M1003.39,4367.73c.8,11.86.42,25.32-8.771,34.11a20.956,20.956,0,0,1-7.543,4.68c-1.168.42-1.67-1.44-.511-1.85a21.11,21.11,0,0,0,10.91-9.61c2.905-5.02,4.005-10.81,4.255-16.55a99.4,99.4,0,0,0-.26-10.78c-.08-1.23,1.84-1.23,1.92,0Z" transform="translate(-783 -5794)" fill="#3f3d56"/>
    <path id="Path_294" data-name="Path 294" d="M989.077,4394.87a21.689,21.689,0,0,0-6.467,3.94c-1.644,1.64-2.792,4.04-2.126,6.38,1.093,3.84,5.959,5.29,9.352,6.21a.986.986,0,0,1,.557.46.971.971,0,0,1-.355,1.29,1.037,1.037,0,0,1-.713.11c-3.413-.93-7.24-2.21-9.469-5.14-2.638-3.46-1.386-8.03,1.578-10.85a23.812,23.812,0,0,1,6.674-4.06c1.114-.52,2.09,1.13.969,1.66Z" transform="translate(-783 -5794)" fill="#3f3d56"/>
    <g id="Group_12" data-name="Group 12" transform="translate(-783 -5794)" clip-path="url(#clip-path)">
      <path id="Path_295" data-name="Path 295" d="M1529.96,4747.76a31.785,31.785,0,1,1,31.8-31.78A31.795,31.795,0,0,1,1529.96,4747.76Z" fill="#e6e6e6"/>
      <path id="Path_296" data-name="Path 296" d="M1529.87,4715.98h-.09l-1.57,90.11h3.32Z" fill="#e6e6e6"/>
      <path id="Path_297" data-name="Path 297" d="M1461.67,4763.55a23.185,23.185,0,1,1,23.2-23.18A23.185,23.185,0,0,1,1461.67,4763.55Z" fill="#e6e6e6"/>
      <path id="Path_298" data-name="Path 298" d="M1461.61,4740.37h-.06l-1.15,65.72h2.42Z" fill="#e6e6e6"/>
      <path id="Path_299" data-name="Path 299" d="M1490.89,4708.5a52.75,52.75,0,1,1,52.78-52.75A52.775,52.775,0,0,1,1490.89,4708.5Z" fill="#164aa5"/>
      <path id="Path_300" data-name="Path 300" d="M1451.91,4620.52a52.789,52.789,0,0,0,87.96,55.83,52.786,52.786,0,1,1-87.96-55.83Z" opacity="0.1"/>
      <path id="Path_301" data-name="Path 301" d="M1491.03,4655.75h.15l2.61,149.56h-5.51Z" fill="#3f3d56"/>
      <path id="Path_302" data-name="Path 302" d="M1327.74,4806.04h234.97a.324.324,0,0,0,.21-.08.3.3,0,0,0,.08-.2.274.274,0,0,0-.29-.29H1327.74a.28.28,0,0,0-.2.08.288.288,0,0,0-.09.21.266.266,0,0,0,.09.2A.28.28,0,0,0,1327.74,4806.04Z" fill="#cacaca"/>
      <path id="Path_303" data-name="Path 303" d="M1421.25,4763.55a2.182,2.182,0,0,1-.39-.88,2.27,2.27,0,0,1,.03-.97,2.181,2.181,0,0,1,.43-.86,2.222,2.222,0,0,1,.76-.6l-.93-7.86,3.67,1.84.32,7.18a2.243,2.243,0,0,1-.99,2.81,2.278,2.278,0,0,1-1.58.22A2.219,2.219,0,0,1,1421.25,4763.55Z" fill="#ffb6b6"/>
      <path id="Path_304" data-name="Path 304" d="M1419.64,4731l-.14-.94s3.77.28,4.09,3.91,1.49,24.13,1.49,24.13l-3.73.74-3.71-21.03Z" fill="#164aa5"/>
    </g>
  </g>
</svg>
