<svg xmlns="http://www.w3.org/2000/svg" width="1740" height="985" viewBox="0 0 1740 985">
  <g id="Group_36" data-name="Group 36" transform="translate(-122 765)">
    <rect id="Rectangle_92" data-name="Rectangle 92" width="1737" height="975" transform="translate(122 -765)" fill="#f9f8f7"/>
    <rect id="Rectangle_93" data-name="Rectangle 93" width="1737" height="975" transform="translate(122 -755)" fill="#f9f8f7"/>
    <path id="Path_685" data-name="Path 685" d="M634,5367.5C450.729,5152.65-5,5029-5,5029v975H1735s-665.15-11.12-911-292.5C723.022,5595.93,733.6,5484.26,634,5367.5Z" transform="translate(127 -5794)" fill="#ebf8ff"/>
    <path id="Path_686" data-name="Path 686" d="M634,5367.5C450.729,5152.65-5,5029-5,5029v975H1735s-665.15-11.12-911-292.5C723.022,5595.93,733.6,5484.26,634,5367.5Z" transform="translate(127 -5784)" fill="#ebf8ff"/>
    <path id="Path_745" data-name="Path 745" d="M706.862,5642.74H228.326a12.331,12.331,0,0,1-12.321-12.32V5335.34a9.042,9.042,0,0,1,9.026-9.03H710a9.189,9.189,0,0,1,9.183,9.18v294.93a12.331,12.331,0,0,1-12.321,12.32Z" transform="translate(127 -5794)" fill="#fff"/>
    <path id="Path_746" data-name="Path 746" d="M689.406,5625.29H243.423c-6.538,0-11.857-4.98-11.857-11.1V5357.23a8.538,8.538,0,0,1,8.786-8.24H692.33c4.925,0,8.932,3.76,8.932,8.37v256.83C701.262,5620.31,695.943,5625.29,689.406,5625.29Z" transform="translate(127 -5794)" fill="#fff"/>
    <path id="Path_785" data-name="Path 785" d="M719.011,5334.63H215.832v-6.27A12.373,12.373,0,0,1,228.2,5316H706.645a12.372,12.372,0,0,1,12.366,12.36Z" transform="translate(127 -5794)" fill="#ccc"/>
    <path id="Path_786" data-name="Path 786" d="M238.3,5328.53a3.195,3.195,0,1,0-3.2-3.2A3.2,3.2,0,0,0,238.3,5328.53Z" transform="translate(127 -5794)" fill="#fff"/>
    <path id="Path_787" data-name="Path 787" d="M250.447,5328.53a3.195,3.195,0,1,0-3.2-3.2A3.2,3.2,0,0,0,250.447,5328.53Z" transform="translate(127 -5794)" fill="#fff"/>
    <path id="Path_788" data-name="Path 788" d="M262.587,5328.53a3.195,3.195,0,1,0-3.2-3.2A3.2,3.2,0,0,0,262.587,5328.53Z" transform="translate(127 -5794)" fill="#fff"/>
    <path id="Path_762" data-name="Path 762" d="M640.316,5582.2H294.7a13.1,13.1,0,0,1-13.068-13.07V5402.49a9.792,9.792,0,0,1,9.773-9.78h352.05a9.939,9.939,0,0,1,9.93,9.93v166.49a13.1,13.1,0,0,1-13.068,13.07ZM291.4,5394.21a8.276,8.276,0,0,0-8.28,8.28v166.64A11.581,11.581,0,0,0,294.7,5580.7H640.316a11.581,11.581,0,0,0,11.574-11.57V5402.64a8.439,8.439,0,0,0-8.436-8.43Z" transform="translate(127 -5794)" fill="#ccc"/>
    <path id="Path_765" data-name="Path 765" d="M306.647,5569.13H628.369a11.948,11.948,0,0,0,11.947-11.95V5417.87a11.948,11.948,0,0,0-11.947-11.94H306.647a11.95,11.95,0,0,0-11.948,11.94v139.31a11.95,11.95,0,0,0,11.948,11.95Z" transform="translate(127 -5794)" fill="#f2f2f2"/>
    <path id="Path_778" data-name="Path 778" d="M343.177,5446.46a6.725,6.725,0,1,0-6.721-6.73A6.723,6.723,0,0,0,343.177,5446.46Z" transform="translate(127 -5794)" fill="#ccc"/>
    <path id="Path_773" data-name="Path 773" d="M343.177,5471.84a6.72,6.72,0,1,0-6.721-6.72A6.715,6.715,0,0,0,343.177,5471.84Z" transform="translate(127 -5794)" fill="#ccc"/>
    <path id="Path_774" data-name="Path 774" d="M343.177,5497.24a6.725,6.725,0,1,0-6.721-6.73A6.723,6.723,0,0,0,343.177,5497.24Z" transform="translate(127 -5794)" fill="#ccc"/>
    <path id="Path_771" data-name="Path 771" d="M343.177,5522.62a6.72,6.72,0,1,0-6.721-6.72A6.715,6.715,0,0,0,343.177,5522.62Z" transform="translate(127 -5794)" fill="#ccc"/>
    <path id="Path_782" data-name="Path 782" d="M597.813,5440.48H376.78a.745.745,0,0,1,0-1.49H597.813a.745.745,0,0,1,0,1.49Z" transform="translate(127 -5794)" fill="#ccc"/>
    <path id="Path_779" data-name="Path 779" d="M597.813,5465.87H376.78a.745.745,0,0,1,0-1.49H597.813a.745.745,0,0,1,0,1.49Z" transform="translate(127 -5794)" fill="#ccc"/>
    <path id="Path_775" data-name="Path 775" d="M597.813,5491.26H376.78a.745.745,0,0,1,0-1.49H597.813a.745.745,0,0,1,0,1.49Z" transform="translate(127 -5794)" fill="#ccc"/>
    <path id="Path_772" data-name="Path 772" d="M597.813,5516.65H376.78a.745.745,0,0,1,0-1.49H597.813a.745.745,0,0,1,0,1.49Z" transform="translate(127 -5794)" fill="#ccc"/>
    <path id="Path_766" data-name="Path 766" d="M418.6,5542.04H396.942a3.73,3.73,0,0,1-3.734-3.73v-20.17a3.747,3.747,0,0,1,3.734-3.73H418.6a3.747,3.747,0,0,1,3.734,3.73v20.17a3.73,3.73,0,0,1-3.734,3.73Z" transform="translate(127 -5794)" fill="#164aa5"/>
    <path id="Path_767" data-name="Path 767" d="M467.134,5542.04H445.479a3.73,3.73,0,0,1-3.734-3.73v-45.56a3.747,3.747,0,0,1,3.734-3.73h21.655a3.747,3.747,0,0,1,3.734,3.73v45.56a3.73,3.73,0,0,1-3.734,3.73Z" transform="translate(127 -5794)" fill="#164aa5"/>
    <path id="Path_768" data-name="Path 768" d="M516.418,5542.04H494.763a3.73,3.73,0,0,1-3.734-3.73v-70.95a3.747,3.747,0,0,1,3.734-3.73h21.655a3.747,3.747,0,0,1,3.734,3.73v70.95a3.73,3.73,0,0,1-3.734,3.73Z" transform="translate(127 -5794)" fill="#164aa5"/>
    <path id="Path_769" data-name="Path 769" d="M567.2,5542.04H545.541a3.728,3.728,0,0,1-3.733-3.73v-95.59a3.728,3.728,0,0,1,3.733-3.73H567.2a3.73,3.73,0,0,1,3.733,3.73v95.59a3.73,3.73,0,0,1-3.733,3.73Z" transform="translate(127 -5794)" fill="#164aa5"/>
    <path id="Path_770" data-name="Path 770" d="M597.813,5542.04H376.78a.745.745,0,0,1,0-1.49H597.813a.745.745,0,0,1,0,1.49Z" transform="translate(127 -5794)" fill="#3f3d56"/>
    <path id="Path_737" data-name="Path 737" d="M694.924,5681.35a7.438,7.438,0,0,1,5.416-3.32,7.408,7.408,0,0,1,3.237.34,7.484,7.484,0,0,1,2.787,1.68l23.713-12.24L728.6,5681.6l-22.291,9.5a7.548,7.548,0,0,1-11.387-9.75Z" transform="translate(127 -5794)" fill="#ffb8b8"/>
    <path id="Path_738" data-name="Path 738" d="M715.327,5686.49a3.36,3.36,0,0,1-1.138-1.65l-1.886-6.1a3.366,3.366,0,0,1,1.185-3.67l19.219-14.52,20.815-38.61a10.848,10.848,0,0,1,7.2-4.11,11.084,11.084,0,0,1,4.213.3,10.795,10.795,0,0,1,6.544,5.09,10.748,10.748,0,0,1,1.335,4,10.8,10.8,0,0,1-2.191,7.99l-11.842,25a34.623,34.623,0,0,1-17.52,16.95l-22.524,9.77a3.434,3.434,0,0,1-2.74-.03A3.477,3.477,0,0,1,715.327,5686.49Z" transform="translate(127 -5794)" fill="#3f3d56"/>
    <path id="Path_755" data-name="Path 755" d="M771.145,5605.82a18.34,18.34,0,1,0-18.34-18.34A18.34,18.34,0,0,0,771.145,5605.82Z" transform="translate(127 -5794)" fill="#ffb8b8"/>
    <path id="Path_693" data-name="Path 693" d="M763.706,5828.08h-9.155l-4.354-35.31h13.512Z" transform="translate(127 -5794)" fill="#ffb8b8"/>
    <path id="Path_687" data-name="Path 687" d="M748.012,5825.46h17.656v11.12H736.9a11.128,11.128,0,0,1,11.116-11.12Z" transform="translate(127 -5794)" fill="#2f2e41"/>
    <path id="Path_694" data-name="Path 694" d="M793.575,5828.08h-9.154l-4.355-35.31h13.513Z" transform="translate(127 -5794)" fill="#ffb8b8"/>
    <path id="Path_688" data-name="Path 688" d="M777.881,5825.47h17.656v11.11H766.765a11.1,11.1,0,0,1,11.116-11.11Z" transform="translate(127 -5794)" fill="#2f2e41"/>
    <path id="Path_697" data-name="Path 697" d="M794.245,5819.12H783.516a3.351,3.351,0,0,1-3.244-2.49l-15.442-57.27a.38.38,0,0,0-.158-.22.347.347,0,0,0-.263-.05.355.355,0,0,0-.231.13.365.365,0,0,0-.081.26l3.119,54.32a3.339,3.339,0,0,1-2.219,3.35,3.251,3.251,0,0,1-1.415.19l-12.058-1.01a3.324,3.324,0,0,1-2.056-.93,3.391,3.391,0,0,1-1-2.03L737.48,5699.31l4.25,2.55,39.823-6.76,16.023,120.22a3.348,3.348,0,0,1-.8,2.65,3.405,3.405,0,0,1-1.14.85,3.325,3.325,0,0,1-1.388.3Z" transform="translate(127 -5794)" fill="#2f2e41"/>
    <path id="Path_726" data-name="Path 726" d="M750.8,5711.35a24.662,24.662,0,0,1-12.464-3.51,3.286,3.286,0,0,1-1.328-1.47,3.332,3.332,0,0,1-.267-1.96c1.4-8.57,8.724-52.57,15.388-76.56,2.714-9.77,8.716-15.03,17.837-15.64,13.343-.88,25.2,9.56,26.438,23.3,2.178,24.23-6.671,58.66-10.577,72.33a3.377,3.377,0,0,1-.812,1.41,3.3,3.3,0,0,1-1.377.86,3.425,3.425,0,0,1-1.62.12,3.515,3.515,0,0,1-1.484-.66l-7.961-6.2a2.638,2.638,0,0,0-3.372.14C762.488,5709.5,756.114,5711.35,750.8,5711.35Z" transform="translate(127 -5794)" fill="#3f3d56"/>
    <path id="Path_727" data-name="Path 727" d="M777.128,5647.37l6.72,28.37-9.709,23.9,6.722-23.15Z" transform="translate(127 -5794)" opacity="0.2"/>
    <path id="Path_758" data-name="Path 758" d="M781.611,5602.56a12.362,12.362,0,0,0,4.77-.86c.668-.26,1.361-.47,2.027-.73,5.886-2.27,9.763-8.54,9.9-14.85s-3.128-12.43-7.978-16.46a30.852,30.852,0,0,0-17.425-6.59c-6.777-.52-14.408,1.2-18.2,6.84a5.955,5.955,0,0,0-1.116,5.14,3.326,3.326,0,0,0,.927,1.43c1.691,1.5,3.377.37,5.1.27,2.369-.14,4.5,1.78,5.262,4.03a12.134,12.134,0,0,1-.189,7.01,17.457,17.457,0,0,0-.883,4.26,4.3,4.3,0,0,0,.4,2.12,4.341,4.341,0,0,0,1.378,1.66c1.481.89,3.426.38,4.907-.52s2.762-2.13,4.362-2.79,3.751-.51,4.682.95a5.166,5.166,0,0,1,.592,1.71C780.968,5598.98,780.776,5598.76,781.611,5602.56Z" transform="translate(127 -5794)" fill="#2f2e41"/>
    <path id="Path_702" data-name="Path 702" d="M753.184,5802.46l-114.845-39.99a7.9,7.9,0,0,1-4.846-10.03l29.844-85.7a5.783,5.783,0,0,1,7.345-3.55l118.727,41.35a5.875,5.875,0,0,1,3.611,7.47l-29.811,85.61a7.885,7.885,0,0,1-10.025,4.84Z" transform="translate(127 -5794)" fill="#e6e6e6"/>
    <path id="Path_704" data-name="Path 704" d="M648.14,5757.54l100.423,34.98a7.643,7.643,0,0,0,9.722-4.7l24.1-69.2a7.643,7.643,0,0,0-4.7-9.73l-100.423-34.97a7.642,7.642,0,0,0-9.722,4.7l-24.1,69.2a7.621,7.621,0,0,0,.337,5.83,7.633,7.633,0,0,0,4.363,3.89Z" transform="translate(127 -5794)" fill="#fff"/>
    <path id="Path_728" data-name="Path 728" d="M673.357,5708.92l-4.973-1.73a1.055,1.055,0,0,1-.615-.55,1.068,1.068,0,0,1-.048-.82l1.732-4.98a1.085,1.085,0,0,1,.548-.61,1.115,1.115,0,0,1,.823-.05l4.974,1.73a1.126,1.126,0,0,1,.615.55,1.1,1.1,0,0,1,.048.83l-1.732,4.97a1.056,1.056,0,0,1-.549.61A1.027,1.027,0,0,1,673.357,5708.92Z" transform="translate(127 -5794)" fill="#9741c0"/>
    <path id="Path_713" data-name="Path 713" d="M668.87,5721.81l-4.974-1.73a1.132,1.132,0,0,1-.615-.55,1.1,1.1,0,0,1-.048-.83l1.732-4.97a1.058,1.058,0,0,1,.549-.61,1.029,1.029,0,0,1,.823-.05l4.974,1.73a1.061,1.061,0,0,1,.615.55,1.076,1.076,0,0,1,.048.82l-1.733,4.98a1.082,1.082,0,0,1-.548.61A1.117,1.117,0,0,1,668.87,5721.81Z" transform="translate(127 -5794)" fill="#3f3d56"/>
    <path id="Path_714" data-name="Path 714" d="M664.382,5734.69l-4.974-1.73a1.057,1.057,0,0,1-.615-.55,1.074,1.074,0,0,1-.048-.82l1.732-4.97a1.079,1.079,0,0,1,1.372-.67l4.973,1.74a1.071,1.071,0,0,1,.615.54,1.092,1.092,0,0,1,.048.83l-1.732,4.97a1.1,1.1,0,0,1-.549.62A1.065,1.065,0,0,1,664.382,5734.69Z" transform="translate(127 -5794)" fill="#ccc"/>
    <path id="Path_715" data-name="Path 715" d="M706.777,5717.77l-23.963-8.34a1.067,1.067,0,0,1-.364-.22.986.986,0,0,1-.254-.33,1.093,1.093,0,0,1-.048-.83,1.1,1.1,0,0,1,.957-.72,1.458,1.458,0,0,1,.417.06l23.963,8.35a1.082,1.082,0,0,1,.724.95,1.075,1.075,0,0,1-.058.42,1.043,1.043,0,0,1-.214.36,1.01,1.01,0,0,1-.336.26,1.147,1.147,0,0,1-.408.1A.991.991,0,0,1,706.777,5717.77Z" transform="translate(127 -5794)" fill="#ccc"/>
    <path id="Path_716" data-name="Path 716" d="M702.289,5730.66l-23.963-8.35a1.057,1.057,0,0,1-.615-.55,1.068,1.068,0,0,1-.048-.82,1.055,1.055,0,0,1,.549-.61,1.029,1.029,0,0,1,.823-.05L703,5728.62a1.062,1.062,0,0,1,.363.22,1.078,1.078,0,0,1,.3,1.16,1.142,1.142,0,0,1-.213.36,1,1,0,0,1-.336.25,1.161,1.161,0,0,1-.408.11A1,1,0,0,1,702.289,5730.66Z" transform="translate(127 -5794)" fill="#ccc"/>
    <path id="Path_705" data-name="Path 705" d="M697.8,5743.55l-23.963-8.35a1.055,1.055,0,0,1-.615-.55,1.067,1.067,0,0,1-.048-.82,1.1,1.1,0,0,1,.549-.62,1.114,1.114,0,0,1,.823-.05l23.963,8.35a1.056,1.056,0,0,1,.615.55,1.066,1.066,0,0,1,.048.82,1.079,1.079,0,0,1-1.372.67Z" transform="translate(127 -5794)" fill="#ccc"/>
    <path id="Path_706" data-name="Path 706" d="M761.571,5750.53c.175-.42.339-.85.49-1.28a22.572,22.572,0,0,0-13.9-28.75l-7.876,22.61Z" transform="translate(127 -5794)" fill="#164aa5"/>
    <path id="Path_707" data-name="Path 707" d="M738,5744.49l7.876-22.62a22.589,22.589,0,1,0,13.408,30.03Z" transform="translate(127 -5794)" fill="#3f3d56"/>
    <path id="Path_717" data-name="Path 717" d="M766.2,5712.05a7.51,7.51,0,0,1,8.2-8.09L785.5,5679.7l7.348,11.76-11.673,21.24a7.551,7.551,0,0,1-14.98-.65Z" transform="translate(127 -5794)" fill="#ffb8b8"/>
    <path id="Path_729" data-name="Path 729" d="M785.423,5703.5a3.363,3.363,0,0,1-1.915-.6l-5.244-3.63a3.332,3.332,0,0,1-1.237-1.6,3.367,3.367,0,0,1-.1-2.02l6.164-23.28-7.451-43.24a10.787,10.787,0,0,1,3.129-7.67,10.676,10.676,0,0,1,3.5-2.37,10.834,10.834,0,0,1,11.816,2.29,10.858,10.858,0,0,1,3.2,7.65L803.4,5656a34.634,34.634,0,0,1-3.328,24.15l-11.694,21.59a3.351,3.351,0,0,1-.91,1.07,3.479,3.479,0,0,1-1.264.6A3.4,3.4,0,0,1,785.423,5703.5Z" transform="translate(127 -5794)" fill="#3f3d56"/>
    <path id="Path_689" data-name="Path 689" d="M842.253,5837H700.374a.745.745,0,0,1,0-1.49H842.253a.745.745,0,0,1,0,1.49Z" transform="translate(127 -5794)" fill="#ccc"/>
    <path id="Path_695" data-name="Path 695" d="M466.3,5827.71h9.155l4.355-35.31H466.3Z" transform="translate(127 -5794)" fill="#a0616a"/>
    <path id="Path_690" data-name="Path 690" d="M463.969,5824.72H482a11.484,11.484,0,0,1,11.49,11.49v.37H463.969Z" transform="translate(127 -5794)" fill="#2f2e41"/>
    <path id="Path_696" data-name="Path 696" d="M429.713,5827.71h9.155l4.355-35.31H429.712Z" transform="translate(127 -5794)" fill="#a0616a"/>
    <path id="Path_691" data-name="Path 691" d="M427.379,5824.72h18.03a11.484,11.484,0,0,1,11.489,11.49v.37H427.379Z" transform="translate(127 -5794)" fill="#2f2e41"/>
    <path id="Path_763" data-name="Path 763" d="M468.131,5583.23a18.34,18.34,0,1,0-18.341-18.34A18.339,18.339,0,0,0,468.131,5583.23Z" transform="translate(127 -5794)" fill="#a0616a"/>
    <path id="Path_698" data-name="Path 698" d="M480.464,5820.09H463.476a3.393,3.393,0,0,1-1.3-.26,3.449,3.449,0,0,1-1.1-.74,3.344,3.344,0,0,1-.725-1.11,3.306,3.306,0,0,1-.244-1.29l.987-80.68a1.125,1.125,0,0,0-1.045-1.13,1.087,1.087,0,0,0-.789.26,1.107,1.107,0,0,0-.4.72l-9.887,81.27a3.372,3.372,0,0,1-3.336,2.96H428.5a3.339,3.339,0,0,1-2.467-1.08,3.332,3.332,0,0,1-.707-1.18,3.378,3.378,0,0,1-.176-1.37l11.326-144.92.308-.04,54.234-5.85-7.193,151.24a3.362,3.362,0,0,1-3.357,3.2Z" transform="translate(127 -5794)" fill="#2f2e41"/>
    <path id="Path_739" data-name="Path 739" d="M437.132,5680.43a3.359,3.359,0,0,1-3.349-3.25c-.3-9.16-.8-40.87,5.1-64.15a30.821,30.821,0,0,1,58.507-3.6c9.913,25.17,19.279,56.19,7.6,61.06-15.3,6.38-55.65,9.22-67.65,9.94Z" transform="translate(127 -5794)" fill="#3f3d56"/>
    <path id="Path_759" data-name="Path 759" d="M507.229,5546.36a8.688,8.688,0,0,0,.93.81l-1.925,36.99-8.008,4.1,4.608,12.89,14.882-5.88a5.98,5.98,0,0,0,3.753-6.11l-3.9-41.95a7.836,7.836,0,1,0-10.341-.85Z" transform="translate(127 -5794)" fill="#a0616a"/>
    <path id="Path_756" data-name="Path 756" d="M506.386,5585.53l5.633,16.01a3.364,3.364,0,0,1-.255,2.79,3.33,3.33,0,0,1-.96,1.06,3.515,3.515,0,0,1-1.316.57l-16.611,3.21a9.33,9.33,0,0,1-6.144-17.62l14.915-7.87a3.341,3.341,0,0,1,1.38-.39,3.412,3.412,0,0,1,1.414.23,3.5,3.5,0,0,1,1.191.79,3.441,3.441,0,0,1,.753,1.22Z" transform="translate(127 -5794)" fill="#3f3d56"/>
    <path id="Path_760" data-name="Path 760" d="M427.786,5546.36a8.688,8.688,0,0,1-.93.81l1.925,36.99,8.008,4.1-4.608,12.89-14.882-5.88a5.976,5.976,0,0,1-3.753-6.11l3.9-41.95a7.836,7.836,0,1,1,10.341-.85Z" transform="translate(127 -5794)" fill="#a0616a"/>
    <path id="Path_757" data-name="Path 757" d="M430.573,5583.52a3.412,3.412,0,0,1,1.414-.23,3.337,3.337,0,0,1,1.38.39l14.915,7.87a9.33,9.33,0,0,1-6.144,17.62l-16.611-3.21a3.515,3.515,0,0,1-1.316-.57,3.342,3.342,0,0,1-.96-1.06,3.374,3.374,0,0,1-.255-2.79l5.634-16.01a3.425,3.425,0,0,1,.752-1.22A3.51,3.51,0,0,1,430.573,5583.52Z" transform="translate(127 -5794)" fill="#3f3d56"/>
    <path id="Path_764" data-name="Path 764" d="M475.254,5568.02a12.062,12.062,0,0,1,6.751-11.33c5.575-2.88,9.077-9.01,7.542-14.62-1.964-7.18-11.73-11.83-19.643-9.36a36.059,36.059,0,0,0-6.168,2.87l-5.17,2.77a52.793,52.793,0,0,0-6.373,3.76,21.132,21.132,0,0,0-8.415,19.81c1.018,7.3,5.795,13.99,12.334,18.57a20.788,20.788,0,0,0,8.452,3.75c3.134.52,6.624-.07,8.916-2.02,3.581-3.04,3.211-8.14,2.053-12.41A8.838,8.838,0,0,1,475.254,5568.02Z" transform="translate(127 -5794)" fill="#2f2e41"/>
    <path id="Path_692" data-name="Path 692" d="M537.586,5837H395.707a.745.745,0,0,1,0-1.49H537.586a.745.745,0,0,1,0,1.49Z" transform="translate(127 -5794)" fill="#ccc"/>
    <path id="Path_708" data-name="Path 708" d="M306.031,5700.77,188.96,5748.8a8.191,8.191,0,0,1-10.689-4.47l-35.838-87.36a6.011,6.011,0,0,1,3.275-7.83l121.029-49.65a6.117,6.117,0,0,1,7.967,3.33l35.8,87.26a8.2,8.2,0,0,1-4.47,10.69Z" transform="translate(127 -5794)" fill="#e6e6e6"/>
    <path id="Path_718" data-name="Path 718" d="M193.2,5738.2l102.37-41.99a7.951,7.951,0,0,0,4.335-10.37l-28.938-70.54a7.88,7.88,0,0,0-1.713-2.58,8.111,8.111,0,0,0-2.572-1.74,7.924,7.924,0,0,0-3.038-.61,8.124,8.124,0,0,0-3.043.59l-102.37,42a7.945,7.945,0,0,0-2.583,1.72,7.8,7.8,0,0,0-1.731,2.57,7.946,7.946,0,0,0-.021,6.08l28.938,70.54a7.993,7.993,0,0,0,1.714,2.58,7.91,7.91,0,0,0,2.572,1.73,7.752,7.752,0,0,0,3.038.62A7.941,7.941,0,0,0,193.2,5738.2Z" transform="translate(127 -5794)" fill="#fff"/>
    <path id="Path_747" data-name="Path 747" d="M270.4,5634.54l-1.506.61.1.25,1.505-.61Z" transform="translate(127 -5794)" fill="#e6e6e6"/>
    <path id="Path_740" data-name="Path 740" d="M265.96,5636.65l-3.041,1.25-.1-.25,3.041-1.25Zm-6.081,2.5-3.041,1.24-.1-.25,3.041-1.24Zm-6.082,2.49-3.04,1.25-.1-.25,3.041-1.25Zm-6.081,2.5-3.04,1.24-.1-.25,3.041-1.24Zm-6.081,2.49-3.04,1.25-.1-.25,3.041-1.25Zm-6.081,2.5-3.04,1.24-.1-.25,3.04-1.24Zm-6.081,2.49-3.04,1.25-.1-.25,3.04-1.25Zm-6.081,2.5-3.04,1.24-.1-.25,3.04-1.24Zm-6.081,2.49-3.04,1.25-.1-.25,3.04-1.25Zm-6.081,2.5-3.04,1.24-.1-.25,3.04-1.25Zm-6.081,2.49-3.04,1.25-.1-.25,3.04-1.25Zm-6.081,2.5-3.04,1.24-.1-.25,3.04-1.25Zm-6.081,2.49-3.04,1.25-.1-.25,3.04-1.25Zm-6.081,2.49-3.04,1.25-.1-.25,3.04-1.25Zm-6.081,2.5-3.04,1.25-.1-.25,3.04-1.25Zm-6.081,2.49-3.041,1.25-.1-.25,3.04-1.25Z" transform="translate(127 -5794)" fill="#e6e6e6"/>
    <path id="Path_741" data-name="Path 741" d="M168.56,5676.32l-1.505.62.1.25,1.5-.62Z" transform="translate(127 -5794)" fill="#e6e6e6"/>
    <path id="Path_742" data-name="Path 742" d="M230.557,5678.14l-1.505.62.1.25,1.505-.62Z" transform="translate(127 -5794)" fill="#e6e6e6"/>
    <path id="Path_730" data-name="Path 730" d="M226.159,5680.24l-2.995,1.23-.1-.26,2.995-1.22Zm-5.99,2.45-3,1.23-.1-.25,3-1.23Zm-5.991,2.46-3,1.23-.1-.25,2.995-1.23Zm-5.991,2.46-2.995,1.23-.1-.25,2.995-1.23Zm-5.991,2.46-2.995,1.23-.1-.25,2.995-1.23Zm-5.99,2.46-3,1.22-.1-.25,3-1.23Zm-5.991,2.45-2.995,1.23-.1-.25,2.995-1.23Zm-5.991,2.46-2.995,1.23-.1-.25,2.995-1.23Z" transform="translate(127 -5794)" fill="#e6e6e6"/>
    <path id="Path_731" data-name="Path 731" d="M178.13,5699.65l-1.505.61.1.26,1.505-.62Z" transform="translate(127 -5794)" fill="#e6e6e6"/>
    <path id="Path_732" data-name="Path 732" d="M205.736,5701.22l-1.506.61.1.26,1.505-.62Z" transform="translate(127 -5794)" fill="#e6e6e6"/>
    <path id="Path_733" data-name="Path 733" d="M201.252,5703.35l-3.082,1.26-.1-.25,3.082-1.26Zm-6.164,2.53-3.081,1.26-.1-.25,3.082-1.26Zm-6.163,2.53-3.082,1.26-.1-.25,3.082-1.26Z" transform="translate(127 -5794)" fill="#e6e6e6"/>
    <path id="Path_734" data-name="Path 734" d="M182.658,5710.68l-1.505.62.1.25,1.505-.61Z" transform="translate(127 -5794)" fill="#e6e6e6"/>
    <path id="Path_719" data-name="Path 719" d="M213.463,5720.05l-1.505.62.1.25,1.5-.62Z" transform="translate(127 -5794)" fill="#e6e6e6"/>
    <path id="Path_720" data-name="Path 720" d="M208.979,5722.19l-3.082,1.26-.1-.25,3.082-1.27Zm-6.164,2.52-3.082,1.27-.1-.25,3.082-1.27Zm-6.164,2.53-3.081,1.27-.1-.25,3.082-1.27Z" transform="translate(127 -5794)" fill="#e6e6e6"/>
    <path id="Path_721" data-name="Path 721" d="M190.385,5729.52l-1.5.62.1.25,1.505-.62Z" transform="translate(127 -5794)" fill="#e6e6e6"/>
    <path id="Path_722" data-name="Path 722" d="M197.548,5727.1l86.752-35.59a8.571,8.571,0,0,0,4.672-11.17l-17.528-42.73-.169.07-21.289,50.91-15.789-6.6a1.952,1.952,0,0,0-.923-.16,2.023,2.023,0,0,0-.9.27,2.18,2.18,0,0,0-.9,1.07l-11.157,26.68-11.545-4.83a2.116,2.116,0,0,0-.786-.16,1.951,1.951,0,0,0-.788.16,2.014,2.014,0,0,0-.668.44,2.118,2.118,0,0,0-.448.66C206.007,5706.31,198.889,5723.77,197.548,5727.1Z" transform="translate(127 -5794)" fill="#164aa5"/>
    <path id="Path_723" data-name="Path 723" d="M197.28,5727.5l-.25-.1,8.927-21.35a2.309,2.309,0,0,1,1.252-1.24,2.339,2.339,0,0,1,1.763,0l11.317,4.74,11.093-26.53a2.317,2.317,0,0,1,3.016-1.24l15.561,6.51,21.4-51.17.25.1-21.5,51.42-15.812-6.61a2.085,2.085,0,0,0-.778-.16,1.9,1.9,0,0,0-.778.16,1.979,1.979,0,0,0-1.1,1.09l-11.2,26.78-11.566-4.84a2.045,2.045,0,0,0-1.556,0,2.02,2.02,0,0,0-1.1,1.1Z" transform="translate(127 -5794)" fill="#3f3d56"/>
    <path id="Path_735" data-name="Path 735" d="M205.788,5703.24a1.9,1.9,0,1,0-1.9-1.9A1.9,1.9,0,0,0,205.788,5703.24Z" transform="translate(127 -5794)" fill="#3f3d56"/>
    <path id="Path_743" data-name="Path 743" d="M230.608,5680.16a1.9,1.9,0,1,0-1.9-1.9A1.9,1.9,0,0,0,230.608,5680.16Z" transform="translate(127 -5794)" fill="#3f3d56"/>
    <path id="Path_748" data-name="Path 748" d="M269.256,5636.49a1.9,1.9,0,1,0-1.9-1.9A1.9,1.9,0,0,0,269.256,5636.49Z" transform="translate(127 -5794)" fill="#3f3d56"/>
    <path id="Path_736" data-name="Path 736" d="M163.025,5699.19A7.572,7.572,0,0,0,167,5694.2a7.538,7.538,0,0,0-1.276-6.25l5.636-55.12H159.176l-4.48,53.82a7.581,7.581,0,0,0,8.329,12.54Z" transform="translate(127 -5794)" fill="#ffb8b8"/>
    <path id="Path_761" data-name="Path 761" d="M174.21,5602.42a17.235,17.235,0,1,0-17.234-17.24A17.238,17.238,0,0,0,174.21,5602.42Z" transform="translate(127 -5794)" fill="#ffb8b8"/>
    <path id="Path_744" data-name="Path 744" d="M177.454,5664.93a3.139,3.139,0,0,1-3.037-2.31c-1.381-5.02-4.974-13.5-10.678-25.22a20.9,20.9,0,1,1,38.684-15.53c4.421,13.86,4.208,28.71,3.911,34.45a3.179,3.179,0,0,1-.748,1.88,3.214,3.214,0,0,1-1.732,1.04l-25.722,5.62A3.074,3.074,0,0,1,177.454,5664.93Z" transform="translate(127 -5794)" fill="#ff6584"/>
    <path id="Path_703" data-name="Path 703" d="M202.364,5828.59h8.6l4.093-33.18h-12.7Z" transform="translate(127 -5794)" fill="#ffb8b8"/>
    <path id="Path_700" data-name="Path 700" d="M227.558,5836.58H200.52v-10.44h16.591a10.438,10.438,0,0,1,10.447,10.44Z" transform="translate(127 -5794)" fill="#2f2e41"/>
    <path id="Path_709" data-name="Path 709" d="M116.34,5817.45l7.539,4.14,19.573-27.11-11.125-6.11Z" transform="translate(127 -5794)" fill="#ffb8b8"/>
    <path id="Path_710" data-name="Path 710" d="M134.569,5836.58l-23.692-13.02,5.032-9.16,14.539,8a10.44,10.44,0,0,1,4.121,14.18Z" transform="translate(127 -5794)" fill="#2f2e41"/>
    <path id="Path_701" data-name="Path 701" d="M201.962,5810.18a3.139,3.139,0,0,1-2.082-.79,3.176,3.176,0,0,1-1.046-1.97l-10.759-82.9a1.752,1.752,0,0,0-1.413-1.5,1.739,1.739,0,0,0-1.863.87l-44.838,81.36a3.176,3.176,0,0,1-3.889,1.42l-9.774-3.72a3.156,3.156,0,0,1-1.8-4.14l31.06-76.31a2.329,2.329,0,0,0,.159-.6c4.207-32.56,14.911-49.12,18.091-53.42a2.447,2.447,0,0,0,.348-2.23l-.437-1.31a3.149,3.149,0,0,1,.607-3.07c11.46-13.05,31.434-5.93,31.635-5.86l.1.04.063.08c22.4,30.72,14.115,130.49,12.228,150.18a3.142,3.142,0,0,1-.931,1.95,3.176,3.176,0,0,1-1.97.89l-13.244,1.02C202.125,5810.17,202.043,5810.18,201.962,5810.18Z" transform="translate(127 -5794)" fill="#2f2e41"/>
    <path id="Path_749" data-name="Path 749" d="M241.212,5605.2a7.594,7.594,0,0,0-.168,1.15L210.9,5623.74l-7.326-4.21-7.811,10.22,12.245,8.73a5.624,5.624,0,0,0,6.735-.16l31.083-24.53a7.369,7.369,0,1,0-4.614-8.59Z" transform="translate(127 -5794)" fill="#ffb8b8"/>
    <path id="Path_750" data-name="Path 750" d="M209.892,5624.57l-9.742,12.63a3.186,3.186,0,0,1-2.327,1.22,3.181,3.181,0,0,1-1.329-.22,3.145,3.145,0,0,1-1.118-.74L184.347,5626a8.768,8.768,0,0,1,10.755-13.85l13.832,7.73a3.131,3.131,0,0,1,1.008.9,3.148,3.148,0,0,1,.526,2.57A3.173,3.173,0,0,1,209.892,5624.57Z" transform="translate(127 -5794)" fill="#ff6584"/>
    <path id="Path_751" data-name="Path 751" d="M172.133,5646.51l-15.695-2.84a3.138,3.138,0,0,1-1.243-.51,3.171,3.171,0,0,1-1.187-3.61l5.088-15.06a8.769,8.769,0,0,1,17.25,3.17l-.5,15.84a3.13,3.13,0,0,1-.328,1.3,3.072,3.072,0,0,1-.842,1.05,3.141,3.141,0,0,1-2.547.66Z" transform="translate(127 -5794)" fill="#ff6584"/>
    <path id="Path_752" data-name="Path 752" d="M176.937,5581.22c4.43,3.03,10.246,6.15,14.771,2.92a8.239,8.239,0,0,0,2.7-9.49c-2.167-6.2-8.119-8.93-13.81-11.02-7.4-2.71-15.456-4.88-23.094-2.93s-14.389,9.34-13.01,17.1c1.108,6.24,7,11.44,6.16,17.72-.841,6.33-7.953,9.65-14.232,10.79s-13.3,1.49-17.817,6c-5.756,5.75-4.318,16.04,1.1,22.11s13.59,8.83,21.51,10.7c10.494,2.48,21.843,3.78,31.81-.33s17.722-15.2,14.835-25.59c-1.22-4.39-4.093-8.1-6.869-11.71s-5.588-7.38-6.647-11.81c-.882-3.69-.229-7.98,2.219-10.75a3.115,3.115,0,0,0,.417-3.64Z" transform="translate(127 -5794)" fill="#2f2e41"/>
    <path id="Path_699" data-name="Path 699" d="M242.626,5837H100.747a.745.745,0,0,1,0-1.49H242.626a.745.745,0,0,1,0,1.49Z" transform="translate(127 -5794)" fill="#ccc"/>
    <path id="Path_776" data-name="Path 776" d="M1262,5323H962v180h300V5368.5l-46-45.5Z" transform="translate(127 -5794)" fill="#fff" fill-rule="evenodd"/>
    <path id="Path_783" data-name="Path 783" d="M1216,5323l46,45.5h-46Z" transform="translate(127 -5794)" fill="#164aa5"/>
    <path id="Path_711" data-name="Path 711" d="M1262,5583H962v180h300V5628.5l-46-45.5Z" transform="translate(127 -5794)" fill="#fff" fill-rule="evenodd"/>
    <path id="Path_753" data-name="Path 753" d="M1216,5583l46,45.5h-46Z" transform="translate(127 -5794)" fill="#164aa5"/>
    <path id="Path_777" data-name="Path 777" d="M1626,5323H1326v180h300V5368.5l-46-45.5Z" transform="translate(127 -5794)" fill="#fff" fill-rule="evenodd"/>
    <path id="Path_784" data-name="Path 784" d="M1580,5323l46,45.5h-46Z" transform="translate(127 -5794)" fill="#164aa5"/>
    <path id="Path_712" data-name="Path 712" d="M1626,5583H1326v180h300V5628.5l-46-45.5Z" transform="translate(127 -5794)" fill="#fff" fill-rule="evenodd"/>
    <path id="Path_754" data-name="Path 754" d="M1580,5583l46,45.5h-46Z" transform="translate(127 -5794)" fill="#164aa5"/>
  </g>
</svg>
