<svg xmlns="http://www.w3.org/2000/svg" width="22.837" height="37.8" viewBox="0 0 22.837 37.8">
  <g id="Group_88" data-name="Group 88" transform="translate(3415.625 -6903.9)">
    <path id="Path_621" data-name="Path 621" d="M131.95,10676.9a10.856,10.856,0,0,0-7.358,2.8,9.337,9.337,0,0,0-3.048,6.8v5.3h-5.569a.488.488,0,0,0-.506.5v7a.488.488,0,0,0,.506.5h5.569v14.4a.559.559,0,0,0,.506.5h7.65a.559.559,0,0,0,.506-.5v-14.4h5.618a.551.551,0,0,0,.491-.4l1.913-7a.491.491,0,0,0-.491-.6h-7.531v-5.3a1.508,1.508,0,0,1,.511-1.1,1.853,1.853,0,0,1,1.233-.5h5.85a.488.488,0,0,0,.506-.5v-7a.488.488,0,0,0-.506-.5Z" transform="translate(-3531.094 -3773)" fill="#fff"/>
  </g>
</svg>
