<svg xmlns="http://www.w3.org/2000/svg" width="42.188" height="43.3" viewBox="0 0 42.188 43.3">
  <g id="Group_91" data-name="Group 91" transform="translate(3095.188 -6902.2)">
    <path id="Path_626" data-name="Path 626" d="M440.688,10675.2a4.8,4.8,0,1,0,4.781,4.8A4.824,4.824,0,0,0,440.688,10675.2Z" transform="translate(-3531.094 -3773)" fill="#fff"/>
    <path id="Path_625" data-name="Path 625" d="M436.188,10688.7a.271.271,0,0,0-.282.3v29.2a.271.271,0,0,0,.282.3h9a.271.271,0,0,0,.281-.3V10689a.271.271,0,0,0-.281-.3Z" transform="translate(-3531.094 -3773)" fill="#fff"/>
    <path id="Path_627" data-name="Path 627" d="M450.812,10688.7a.271.271,0,0,0-.281.3v29.2a.271.271,0,0,0,.281.3h9a.271.271,0,0,0,.282-.3v-15.7a4.308,4.308,0,0,1,1.235-3,4.308,4.308,0,0,1,5.967,0,4.308,4.308,0,0,1,1.235,3v15.7a.271.271,0,0,0,.281.3h9a.271.271,0,0,0,.282-.3v-19.3a9.349,9.349,0,0,0-10.182-9.3,20.189,20.189,0,0,0-4.879,1.2l-2.939,1.3v-3.1a.271.271,0,0,0-.282-.3Z" transform="translate(-3531.094 -3773)" fill="#fff"/>
  </g>
</svg>
