<svg xmlns="http://www.w3.org/2000/svg" width="41.365" height="41.4" viewBox="0 0 41.365 41.4">
  <g id="Group_90" data-name="Group 90" transform="translate(3204.777 -6904.3)">
    <path id="Path_624" data-name="Path 624" d="M347,10690.7a7.3,7.3,0,1,0,7.312,7.3A7.327,7.327,0,0,0,347,10690.7Z" transform="translate(-3531.094 -3773)" fill="#fff"/>
    <path id="Path_623" data-name="Path 623" d="M335.231,10677.9a115.6,115.6,0,0,1,23.537,0,9.4,9.4,0,0,1,8.218,8.2,102.085,102.085,0,0,1,0,23.8,9.4,9.4,0,0,1-8.218,8.2,115.6,115.6,0,0,1-23.537,0,9.4,9.4,0,0,1-8.218-8.2,102.085,102.085,0,0,1,0-23.8A9.4,9.4,0,0,1,335.231,10677.9Zm23.019,6.6a2.25,2.25,0,1,0,2.25,2.3A2.256,2.256,0,0,0,358.25,10684.5Zm-21.938,13.5A10.688,10.688,0,1,1,347,10708.7,10.7,10.7,0,0,1,336.312,10698Z" transform="translate(-3531.094 -3773)" fill="#fff" fill-rule="evenodd"/>
  </g>
</svg>
