<svg xmlns="http://www.w3.org/2000/svg" width="43.887" height="36.621" viewBox="0 0 43.887 36.621">
  <g id="Group_89" data-name="Group 89" transform="translate(3315.866 -6906.988)">
    <path id="Path_622" data-name="Path 622" d="M259.072,10685a.205.205,0,0,0-.271-.3,18.29,18.29,0,0,1-4.611,1.1,8.947,8.947,0,0,0,3.87-4.5.234.234,0,0,0-.316-.3,16.48,16.48,0,0,1-5.23,1.9c-.077.1-.156,0-.21,0a9.4,9.4,0,0,0-5.157-2.8,9.269,9.269,0,0,0-5.886,1,9.571,9.571,0,0,0-4.069,4.3,9.414,9.414,0,0,0-.617,5.7.276.276,0,0,1-.235.3,27.975,27.975,0,0,1-10.233-2.8,26.531,26.531,0,0,1-8.271-6.6.261.261,0,0,0-.366,0,9.727,9.727,0,0,0-1.08,4.4,8.947,8.947,0,0,0,1.084,4.3,9.416,9.416,0,0,0,3.011,3.4,10.185,10.185,0,0,1-3.844-1,.21.21,0,0,0-.331.2,9.824,9.824,0,0,0,2.1,5.6,9.249,9.249,0,0,0,5.316,3.1,7,7,0,0,1-2.475.4,6.217,6.217,0,0,1-1.364-.1c-.168,0-.305.1-.246.3a8.755,8.755,0,0,0,3.165,4.2,8.623,8.623,0,0,0,5.33,1.8,18.185,18.185,0,0,1-11.385,4h-1.272c-.238-.1-.348.3-.142.4a25.927,25.927,0,0,0,13.317,3.6,25.854,25.854,0,0,0,18.687-7.6,25.421,25.421,0,0,0,5.709-8.5,26.275,26.275,0,0,0,1.951-10.1v-1.1c0-.1.034-.2.091-.2A19.03,19.03,0,0,0,259.072,10685Z" transform="translate(-3531.094 -3773)" fill="#fff"/>
  </g>
</svg>
